<svg width="1920" height="635" viewBox="0 0 1920 635" fill="none" xmlns="http://www.w3.org/2000/svg">
<g clip-path="url(#clip0_730_8401)">
<g clip-path="url(#clip1_730_8401)">
<rect width="1920" height="684" fill="#004922"/>
<circle cx="1578.33" cy="238.326" r="426.326" transform="rotate(-90 1578.33 238.326)" fill="url(#paint0_linear_730_8401)"/>
</g>
<path d="M1814.96 447.183C1801.53 454.882 1787.03 460.544 1771.94 463.985C1752.69 467.846 1734.64 460.538 1720.71 446.989C1705.47 432.081 1691.34 415.959 1677.51 399.715C1654.24 372.351 1625.04 365.431 1592.14 380.291C1572.23 388.852 1554.12 401.093 1538.75 416.371C1530.15 424.911 1520.81 432.663 1510.84 439.535C1485.75 457.163 1459.34 454.273 1433.18 442.303C1411.05 432.227 1389.5 420.693 1367.27 411.005C1339.51 398.865 1312.16 401.075 1289.2 421.446C1275.1 433.805 1263.31 449.247 1251.73 464.301C1243.8 474.62 1235.62 482.827 1221.76 479.889C1215.77 478.626 1210.16 475.276 1204.58 472.459C1199 469.643 1193.68 465.903 1187.96 463.257C1177.06 458.231 1167.01 462.31 1156.99 466.753C1146.22 471.609 1137.02 470.395 1132.94 461.897C1130.21 455.533 1129.7 448.431 1131.51 441.744C1139.69 414.21 1128.79 410.18 1107.48 411.03C1102.1 411.065 1096.73 410.304 1091.56 408.772C1082.85 406.344 1079.79 396.971 1083.29 384.491C1085.08 378.13 1087.05 371.817 1088.87 365.48C1092.34 353.339 1090.33 342.777 1080.06 334.741C1070.35 327.092 1060.02 329.884 1050.53 334.741C1044.41 337.921 1039.34 343.069 1033.86 347.415C1030.87 349.843 1028.2 352.611 1025.05 354.699C1011.7 363.489 1001.07 360.526 994.202 345.885C990.999 339.062 988.887 331.706 985.66 324.858C978.379 309.562 969.788 306.672 953.214 310.412C935.619 314.394 923.121 324.373 913.075 338.577C904.921 350.159 897.64 351.567 885.506 344.453C881.963 342.365 878.517 340.058 874.95 337.994C860.146 329.375 848.255 334.522 844.518 351.348C843.62 355.355 843.183 359.434 842.528 363.489C840.538 375.775 833.67 383.374 821.391 386.191C809.111 389.007 796.759 391.994 788.193 402.847C782.174 410.447 778.946 418.508 780.548 428.245C783.824 448.227 777.49 455.123 757.251 457.381C748.587 458.401 738.492 461.46 732.425 467.093C720.485 478.359 708.303 479.646 694.082 474.523C686.025 471.658 677.944 468.914 670.033 465.661C654.186 459.154 638.848 458.838 623.463 467.409C609.145 475.373 594.899 476.538 581.14 465.466C577.029 462.5 572.621 459.97 567.987 457.915C542.069 444.658 514.476 436.063 485.476 440.239C466.062 443.031 447.4 451.092 428.665 457.527C417.332 461.412 406.387 466.462 395.418 471.342C365.083 484.867 335.574 482.317 306.598 467.312C291.139 459.299 275.729 451.238 260.222 443.347C239.975 432.694 217.755 426.322 194.942 424.627C182.068 423.579 169.12 425.316 156.976 429.719C144.833 434.122 133.779 441.089 124.565 450.145C117.649 456.774 110.975 463.694 104.18 470.468C82.7762 492.223 62.828 496.351 35.4054 482.026C16.1368 471.949 -1.72431 459.178 -20.2406 447.645C-24.536 445.022 -28.7586 442.546 -34.0005 439.535V664H1920V390.5C1896.7 404.583 1838.79 434.169 1814.96 447.183Z" fill="#013E1D"/>
<ellipse cx="-3.01875" cy="442" rx="5.99688" ry="6" fill="#013E1D"/>
<ellipse cx="14.972" cy="453" rx="5.99688" ry="6" fill="#013E1D"/>
<ellipse cx="31.9632" cy="463" rx="5.99688" ry="6" fill="#013E1D"/>
<ellipse cx="49.9539" cy="469" rx="5.99688" ry="6" fill="#013E1D"/>
<ellipse cx="70.9427" cy="461" rx="5.99688" ry="6" fill="#013E1D"/>
<ellipse cx="84.9354" cy="447" rx="5.99688" ry="6" fill="#013E1D"/>
<ellipse cx="99.9275" cy="434" rx="5.99688" ry="6" fill="#013E1D"/>
<ellipse cx="113.92" cy="420" rx="5.99688" ry="6" fill="#013E1D"/>
<ellipse cx="130.911" cy="411" rx="5.99688" ry="6" fill="#013E1D"/>
<ellipse cx="148.902" cy="406" rx="5.99688" ry="6" fill="#013E1D"/>
<ellipse cx="166.893" cy="406" rx="5.99688" ry="6" fill="#013E1D"/>
<ellipse cx="186.882" cy="406" rx="5.99688" ry="6" fill="#013E1D"/>
<ellipse cx="207.871" cy="406" rx="5.99688" ry="6" fill="#013E1D"/>
<ellipse cx="228.861" cy="410" rx="5.99688" ry="6" fill="#013E1D"/>
<ellipse cx="245.852" cy="420" rx="5.99688" ry="6" fill="#013E1D"/>
<ellipse cx="265.841" cy="427" rx="5.99688" ry="6" fill="#013E1D"/>
<ellipse cx="283.832" cy="437" rx="5.99688" ry="6" fill="#013E1D"/>
<ellipse cx="300.823" cy="448" rx="5.99688" ry="6" fill="#013E1D"/>
<ellipse cx="320.813" cy="457" rx="5.99688" ry="6" fill="#013E1D"/>
<ellipse cx="342.801" cy="458" rx="5.99688" ry="6" fill="#013E1D"/>
<ellipse cx="362.791" cy="456" rx="5.99688" ry="6" fill="#013E1D"/>
<ellipse cx="382.78" cy="451" rx="5.99688" ry="6" fill="#013E1D"/>
<ellipse cx="401.77" cy="443" rx="5.99688" ry="6" fill="#013E1D"/>
<ellipse cx="421.76" cy="435" rx="5.99688" ry="6" fill="#013E1D"/>
<ellipse cx="441.75" cy="428" rx="5.99688" ry="6" fill="#013E1D"/>
<ellipse cx="461.739" cy="422" rx="5.99688" ry="6" fill="#013E1D"/>
<ellipse cx="483.728" cy="420" rx="5.99688" ry="6" fill="#013E1D"/>
<ellipse cx="505.716" cy="420" rx="5.99688" ry="6" fill="#013E1D"/>
<ellipse cx="525.706" cy="425" rx="5.99688" ry="6" fill="#013E1D"/>
<ellipse cx="545.696" cy="432" rx="5.99688" ry="6" fill="#013E1D"/>
<ellipse cx="565.685" cy="440" rx="5.99688" ry="6" fill="#013E1D"/>
<ellipse cx="584.675" cy="450" rx="5.99688" ry="6" fill="#013E1D"/>
<ellipse cx="604.665" cy="457" rx="5.99688" ry="6" fill="#013E1D"/>
<ellipse cx="622.656" cy="446" rx="5.99688" ry="6" fill="#013E1D"/>
<ellipse cx="642.645" cy="444" rx="5.99688" ry="6" fill="#013E1D"/>
<ellipse cx="661.635" cy="445" rx="5.99688" ry="6" fill="#013E1D"/>
<ellipse cx="681.625" cy="452" rx="5.99688" ry="6" fill="#013E1D"/>
<ellipse cx="701.614" cy="457" rx="5.99688" ry="6" fill="#013E1D"/>
<ellipse cx="720.604" cy="451" rx="5.99688" ry="6" fill="#013E1D"/>
<ellipse cx="735.596" cy="439" rx="5.99688" ry="6" fill="#013E1D"/>
<ellipse cx="753.587" cy="432" rx="5.99688" ry="6" fill="#013E1D"/>
<ellipse cx="761.583" cy="414" rx="5.99688" ry="6" fill="#013E1D"/>
<ellipse cx="771.578" cy="396" rx="5.99688" ry="6" fill="#013E1D"/>
<ellipse cx="786.57" cy="380" rx="5.99688" ry="6" fill="#013E1D"/>
<ellipse cx="804.561" cy="370" rx="5.99688" ry="6" fill="#013E1D"/>
<ellipse cx="823.551" cy="359" rx="5.99688" ry="6" fill="#013E1D"/>
<ellipse cx="833.546" cy="340" rx="5.99688" ry="6" fill="#013E1D"/>
<ellipse cx="845.539" cy="321" rx="5.99688" ry="6" fill="#013E1D"/>
<ellipse cx="865.529" cy="319" rx="5.99688" ry="6" fill="#013E1D"/>
<ellipse cx="884.519" cy="328" rx="5.99688" ry="6" fill="#013E1D"/>
<ellipse cx="904.509" cy="324" rx="5.99688" ry="6" fill="#013E1D"/>
<ellipse cx="920.5" cy="310" rx="5.99688" ry="6" fill="#013E1D"/>
<ellipse cx="938.491" cy="296" rx="5.99688" ry="6" fill="#013E1D"/>
<ellipse cx="956.481" cy="292" rx="5.99688" ry="6" fill="#013E1D"/>
<ellipse cx="976.471" cy="294" rx="5.99688" ry="6" fill="#013E1D"/>
<ellipse cx="990.464" cy="310" rx="5.99688" ry="6" fill="#013E1D"/>
<ellipse cx="999.459" cy="326" rx="5.99688" ry="6" fill="#013E1D"/>
<ellipse cx="1011.45" cy="343" rx="5.99688" ry="6" fill="#013E1D"/>
<ellipse cx="1026.45" cy="330" rx="5.99688" ry="6" fill="#013E1D"/>
<ellipse cx="1043.44" cy="317" rx="5.99688" ry="6" fill="#013E1D"/>
<ellipse cx="1062.43" cy="308" rx="5.99688" ry="6" fill="#013E1D"/>
<ellipse cx="1082.42" cy="313" rx="5.99688" ry="6" fill="#013E1D"/>
<ellipse cx="1097.41" cy="328" rx="5.99688" ry="6" fill="#013E1D"/>
<ellipse cx="1103.41" cy="349" rx="5.99688" ry="6" fill="#013E1D"/>
<ellipse cx="1105.4" cy="367" rx="5.99688" ry="6" fill="#013E1D"/>
<ellipse cx="1102.41" cy="386" rx="5.99688" ry="6" fill="#013E1D"/>
<ellipse cx="1123.39" cy="394" rx="5.99688" ry="6" fill="#013E1D"/>
<ellipse cx="1143.38" cy="398" rx="5.99688" ry="6" fill="#013E1D"/>
<ellipse cx="1154.38" cy="417" rx="5.99688" ry="6" fill="#013E1D"/>
<ellipse cx="1152.38" cy="437" rx="5.99688" ry="6" fill="#013E1D"/>
<ellipse cx="1173.37" cy="447" rx="5.99688" ry="6" fill="#013E1D"/>
<ellipse cx="1194.36" cy="447" rx="5.99688" ry="6" fill="#013E1D"/>
<ellipse cx="1213.35" cy="456" rx="5.99688" ry="6" fill="#013E1D"/>
<ellipse cx="1234.34" cy="453" rx="5.99688" ry="6" fill="#013E1D"/>
<ellipse cx="1246.33" cy="436" rx="5.99688" ry="6" fill="#013E1D"/>
<ellipse cx="1260.32" cy="422" rx="5.99688" ry="6" fill="#013E1D"/>
<ellipse cx="1275.32" cy="407" rx="5.99688" ry="6" fill="#013E1D"/>
<ellipse cx="1293.31" cy="394" rx="5.99688" ry="6" fill="#013E1D"/>
<ellipse cx="1312.3" cy="385" rx="5.99688" ry="6" fill="#013E1D"/>
<ellipse cx="1334.28" cy="384" rx="5.99688" ry="6" fill="#013E1D"/>
<ellipse cx="1356.27" cy="386" rx="5.99688" ry="6" fill="#013E1D"/>
<ellipse cx="1375.26" cy="391" rx="5.99688" ry="6" fill="#013E1D"/>
<ellipse cx="1394.25" cy="398" rx="5.99688" ry="6" fill="#013E1D"/>
<ellipse cx="1412.24" cy="408" rx="5.99688" ry="6" fill="#013E1D"/>
<ellipse cx="1431.23" cy="418" rx="5.99688" ry="6" fill="#013E1D"/>
<ellipse cx="1450.22" cy="426" rx="5.99688" ry="6" fill="#013E1D"/>
<ellipse cx="1469.21" cy="430" rx="5.99688" ry="6" fill="#013E1D"/>
<ellipse cx="1489.2" cy="425" rx="5.99688" ry="6" fill="#013E1D"/>
<ellipse cx="1506.2" cy="417" rx="5.99688" ry="6" fill="#013E1D"/>
<ellipse cx="1524.19" cy="406" rx="5.99688" ry="6" fill="#013E1D"/>
<ellipse cx="1538.18" cy="391" rx="5.99688" ry="6" fill="#013E1D"/>
<ellipse cx="1556.17" cy="378" rx="5.99688" ry="6" fill="#013E1D"/>
<ellipse cx="1573.16" cy="367" rx="5.99688" ry="6" fill="#013E1D"/>
<ellipse cx="1590.15" cy="358" rx="5.99688" ry="6" fill="#013E1D"/>
<ellipse cx="1610.14" cy="350" rx="5.99688" ry="6" fill="#013E1D"/>
<ellipse cx="1630.13" cy="350" rx="5.99688" ry="6" fill="#013E1D"/>
<ellipse cx="1652.12" cy="352" rx="5.99688" ry="6" fill="#013E1D"/>
<ellipse cx="1672.11" cy="363" rx="5.99688" ry="6" fill="#013E1D"/>
<ellipse cx="1689.1" cy="373" rx="5.99688" ry="6" fill="#013E1D"/>
<ellipse cx="1704.09" cy="386" rx="5.99688" ry="6" fill="#013E1D"/>
<ellipse cx="1718.08" cy="402" rx="5.99688" ry="6" fill="#013E1D"/>
<ellipse cx="1730.08" cy="415" rx="5.99688" ry="6" fill="#013E1D"/>
<ellipse cx="1747.07" cy="430" rx="5.99688" ry="6" fill="#013E1D"/>
<ellipse cx="1765.06" cy="441" rx="5.99688" ry="6" fill="#013E1D"/>
<ellipse cx="1785.05" cy="438" rx="5.99688" ry="6" fill="#013E1D"/>
<ellipse cx="1803.04" cy="432" rx="5.99688" ry="6" fill="#013E1D"/>
<ellipse cx="1819.03" cy="421" rx="5.99688" ry="6" fill="#013E1D"/>
<ellipse cx="1835.02" cy="412" rx="5.99688" ry="6" fill="#013E1D"/>
<ellipse cx="1853.01" cy="400" rx="5.99688" ry="6" fill="#013E1D"/>
<ellipse cx="1875" cy="387" rx="5.99688" ry="6" fill="#013E1D"/>
<ellipse cx="1895" cy="379" rx="5.99688" ry="6" fill="#013E1D"/>
<ellipse cx="1914" cy="369" rx="5.99688" ry="6" fill="#013E1D"/>
</g>
<defs>
<linearGradient id="paint0_linear_730_8401" x1="1837.34" y1="-178.513" x2="1312.98" y2="94.0176" gradientUnits="userSpaceOnUse">
<stop stop-color="#00B164" stop-opacity="0.7"/>
<stop offset="0.881689" stop-color="#004922"/>
</linearGradient>
<clipPath id="clip0_730_8401">
<rect width="1920" height="635" fill="white"/>
</clipPath>
<clipPath id="clip1_730_8401">
<rect width="1920" height="684" fill="white"/>
</clipPath>
</defs>
</svg>
