<?xml version="1.0" encoding="UTF-8"?>
<svg id="Layer_1" data-name="Layer 1" xmlns="http://www.w3.org/2000/svg" viewBox="0 0 200 200">
  <defs>
    <style>
      .cls-1, .cls-2 {
        fill: #fff;
      }

      .cls-2 {
        opacity: .2;
      }
    </style>
  </defs>
  <ellipse class="cls-2" cx="100" cy="100" rx="84.68" ry="84.67"/>
  <g>
    <path class="cls-1" d="m142.69,70.49c-1.15-2.96-2.69-5.48-5.2-7.98-2.5-2.5-5.02-4.05-7.98-5.2-2.87-1.11-6.14-1.88-10.94-2.09-4.81-.22-6.34-.27-18.58-.27s-13.77.05-18.58.27c-4.8.22-8.07.98-10.94,2.09-2.96,1.15-5.48,2.69-7.98,5.2-2.5,2.5-4.04,5.02-5.2,7.98-1.11,2.87-1.88,6.14-2.09,10.94-.22,4.81-.27,6.34-.27,18.58s.05,13.77.27,18.58c.22,4.8.98,8.07,2.09,10.94,1.15,2.96,2.69,5.48,5.2,7.98,2.51,2.5,5.02,4.05,7.98,5.2,2.87,1.11,6.14,1.88,10.94,2.09,4.81.22,6.34.27,18.58.27s13.77-.05,18.58-.27c4.8-.22,8.07-.98,10.94-2.09,2.96-1.15,5.48-2.69,7.98-5.2,2.5-2.5,4.05-5.02,5.2-7.98,1.11-2.87,1.88-6.14,2.09-10.94.22-4.81.27-6.34.27-18.58s-.05-13.77-.27-18.58c-.22-4.8-.98-8.07-2.09-10.94Zm-6.02,47.72c-.2,4.39-.93,6.78-1.55,8.37-.82,2.1-1.79,3.6-3.37,5.18-1.58,1.58-3.08,2.55-5.18,3.37-1.59.62-3.97,1.35-8.37,1.55-4.75.22-6.17.26-18.21.26s-13.46-.05-18.21-.26c-4.39-.2-6.78-.93-8.37-1.55-2.1-.82-3.6-1.79-5.18-3.37-1.58-1.58-2.55-3.08-3.37-5.18-.62-1.59-1.35-3.97-1.55-8.37-.22-4.75-.26-6.17-.26-18.21s.05-13.46.26-18.21c.2-4.39.94-6.78,1.55-8.37.82-2.1,1.79-3.6,3.37-5.18,1.58-1.58,3.08-2.55,5.18-3.37,1.59-.62,3.97-1.35,8.37-1.55,4.75-.22,6.18-.26,18.21-.26s13.46.05,18.21.26c4.39.2,6.78.93,8.37,1.55,2.1.82,3.6,1.79,5.18,3.37,1.58,1.58,2.55,3.08,3.37,5.18.62,1.59,1.35,3.97,1.55,8.37.22,4.75.26,6.18.26,18.21s-.05,13.46-.26,18.21Z"/>
    <path class="cls-1" d="m100,76.86c-12.78,0-23.14,10.36-23.14,23.14s10.36,23.14,23.14,23.14,23.14-10.36,23.14-23.14-10.36-23.14-23.14-23.14Zm0,38.15c-8.29,0-15.02-6.72-15.02-15.02s6.72-15.02,15.02-15.02,15.02,6.72,15.02,15.02-6.72,15.02-15.02,15.02Z"/>
    <path class="cls-1" d="m124.05,70.54c-2.99,0-5.41,2.42-5.41,5.41s2.42,5.41,5.41,5.41,5.41-2.42,5.41-5.41-2.42-5.41-5.41-5.41Z"/>
  </g>
</svg>