<?xml version="1.0" encoding="UTF-8"?>
<svg id="Layer_1" data-name="Layer 1" xmlns="http://www.w3.org/2000/svg" viewBox="0 0 200 200">
  <defs>
    <style>
      .cls-1, .cls-2 {
        fill: #fff;
      }

      .cls-2 {
        opacity: .2;
      }
    </style>
  </defs>
  <ellipse class="cls-2" cx="100" cy="100" rx="84.68" ry="84.67"/>
  <g>
    <rect class="cls-1" x="62.74" y="81.68" width="17.01" height="54.94"/>
    <path class="cls-1" d="m71.16,54.21c-5.56,0-10.06,4.54-10.06,10.14s4.5,10.14,10.06,10.14,10.06-4.54,10.06-10.14-4.5-10.14-10.06-10.14Z"/>
    <path class="cls-1" d="m123.49,80.01c-11.65,0-16.56,9.08-16.56,9.08v-7.4h-16.31v54.94h16.31v-28.84c0-7.72,3.55-12.33,10.36-12.33,6.25,0,9.26,4.42,9.26,12.33v28.84h16.93v-34.79c0-14.72-8.34-21.83-19.99-21.83Z"/>
  </g>
</svg>