<?xml version="1.0" encoding="UTF-8"?>
<svg id="Layer_1" data-name="Layer 1" xmlns="http://www.w3.org/2000/svg" viewBox="0 0 200 200">
  <defs>
    <style>
      .cls-1, .cls-2 {
        fill: #fff;
      }

      .cls-2 {
        opacity: .2;
      }
    </style>
  </defs>
  <ellipse class="cls-2" cx="100" cy="100" rx="84.68" ry="84.67"/>
  <path class="cls-1" d="m140.16,65.96c-8.02-2.16-40.16-2.16-40.16-2.16,0,0-32.13,0-40.15,2.16-4.42,1.19-7.9,4.69-9.08,9.14-2.15,8.07-2.15,24.9-2.15,24.9,0,0,0,16.83,2.15,24.9,1.18,4.45,4.66,7.95,9.08,9.14,8.02,2.17,40.15,2.17,40.15,2.17,0,0,32.14,0,40.16-2.17,4.42-1.19,7.9-4.69,9.08-9.14,2.15-8.07,2.15-24.9,2.15-24.9,0,0,0-16.83-2.15-24.9-1.18-4.45-4.66-7.95-9.08-9.14Zm-50.67,49.32v-30.56l26.87,15.28-26.87,15.28Z"/>
</svg>